<svg width="18" height="19" viewBox="0 0 18 19" fill="none" xmlns="http://www.w3.org/2000/svg">
<path d="M13.416 8.67181C14.4623 8.52481 15.2678 7.62781 15.27 6.54106C15.27 5.47006 14.4893 4.58206 13.4655 4.41406" stroke="#676767" stroke-width="1.5" stroke-linecap="round" stroke-linejoin="round"/>
<path d="M14.7964 11.1875C15.8096 11.339 16.5169 11.6938 16.5169 12.425C16.5169 12.9283 16.1839 13.2553 15.6454 13.4608" stroke="#676767" stroke-width="1.5" stroke-linecap="round" stroke-linejoin="round"/>
<path fill-rule="evenodd" clip-rule="evenodd" d="M8.91505 11.498C6.50455 11.498 4.4458 11.8633 4.4458 13.322C4.4458 14.78 6.4918 15.1558 8.91505 15.1558C11.3256 15.1558 13.3836 14.7943 13.3836 13.3348C13.3836 11.8753 11.3383 11.498 8.91505 11.498Z" stroke="#676767" stroke-width="1.5" stroke-linecap="round" stroke-linejoin="round"/>
<path fill-rule="evenodd" clip-rule="evenodd" d="M8.91505 9.416C10.4968 9.416 11.7793 8.13425 11.7793 6.55175C11.7793 4.97 10.4968 3.6875 8.91505 3.6875C7.3333 3.6875 6.0508 4.97 6.0508 6.55175C6.0448 8.12825 7.31755 9.41075 8.89405 9.416H8.91505Z" stroke="#676767" stroke-width="1.5" stroke-linecap="round" stroke-linejoin="round"/>
<path d="M4.41357 8.67181C3.36657 8.52481 2.56182 7.62781 2.55957 6.54106C2.55957 5.47006 3.34032 4.58206 4.36407 4.41406" stroke="#676767" stroke-width="1.5" stroke-linecap="round" stroke-linejoin="round"/>
<path d="M3.033 11.1875C2.01975 11.339 1.3125 11.6938 1.3125 12.425C1.3125 12.9283 1.6455 13.2553 2.184 13.4608" stroke="#676767" stroke-width="1.5" stroke-linecap="round" stroke-linejoin="round"/>
</svg>
