<svg width="24" height="24" viewBox="0 0 24 24" fill="none" xmlns="http://www.w3.org/2000/svg">
<path d="M9.02 2.84001L3.63 7.04001C2.73 7.74001 2 9.23001 2 10.36V17.77C2 20.09 3.89 21.99 6.21 21.99H17.79C20.11 21.99 22 20.09 22 17.78V10.5C22 9.29001 21.19 7.74001 20.2 7.05001L14.02 2.72001C12.62 1.74001 10.37 1.79001 9.02 2.84001Z" stroke="#292D32" stroke-width="1.5" stroke-linecap="round" stroke-linejoin="round"/>
<path d="M9.5 8V19.5" stroke="#EC3832" stroke-width="1.5" stroke-linecap="round"/>
<path d="M9.5 9.5H15.6126C16.2951 9.5 16.7771 10.1687 16.5613 10.8162L16.131 12.107C16.0471 12.3586 16.0666 12.6333 16.1852 12.8705L16.7764 14.0528C17.1088 14.7177 16.6253 15.5 15.882 15.5H9.5" stroke="#EC3832" stroke-width="1.5" stroke-linecap="round"/>
</svg>
