<svg width="24" height="24" viewBox="0 0 24 24" fill="none" xmlns="http://www.w3.org/2000/svg">
<g clip-path="url(#clip0_145_3601)">
<path d="M15.4826 9.26133C16.2774 8.97727 17.136 8.92245 17.9605 9.10313C18.7849 9.28381 19.5419 9.69271 20.1451 10.2831C20.7482 10.8735 21.1731 11.6217 21.3713 12.4421C21.5695 13.2625 21.533 14.1221 21.2659 14.9227C20.9989 15.7234 20.512 16.4328 19.861 16.9699C19.21 17.507 18.421 17.8502 17.5842 17.9604C16.7474 18.0705 15.8965 17.943 15.1287 17.5926C14.3609 17.2421 13.7071 16.6828 13.242 15.9785L14.7486 20.9998H8.74858L10.2551 15.9785C9.79005 16.6828 9.13627 17.2421 8.36845 17.5926C7.60064 17.943 6.74974 18.0705 5.91295 17.9604C5.07615 17.8502 4.28719 17.507 3.63616 16.9699C2.98514 16.4328 2.49829 15.7234 2.23122 14.9227C1.96416 14.1221 1.92764 13.2625 2.12584 12.4421C2.32404 11.6217 2.74896 10.8735 3.35209 10.2831C3.95521 9.69271 4.71222 9.28381 5.53666 9.10313C6.36111 8.92245 7.21974 8.97727 8.01451 9.26133C7.5591 8.58418 7.29639 7.79594 7.25451 6.98096C7.21262 6.16599 7.39314 5.35497 7.77674 4.6347C8.16034 3.91443 8.73257 3.31203 9.43221 2.89197C10.1318 2.47191 10.9325 2.25 11.7486 2.25C12.5646 2.25 13.3653 2.47191 14.0649 2.89197C14.7646 3.31203 15.3368 3.91443 15.7204 4.6347C16.104 5.35497 16.2845 6.16599 16.2426 6.98096C16.2008 7.79594 15.9381 8.58418 15.4826 9.26133Z" stroke="#292D32" stroke-width="1.5" stroke-linecap="round" stroke-linejoin="round"/>
<path d="M7 12.5H8.5" stroke="#EC3832" stroke-width="1.5" stroke-linecap="round"/>
<path d="M11 12.5H12.5" stroke="#EC3832" stroke-width="1.5" stroke-linecap="round"/>
<path d="M15 12.5H16.5" stroke="#EC3832" stroke-width="1.5" stroke-linecap="round"/>
</g>
<defs>
<clipPath id="clip0_145_3601">
<rect width="24" height="24" fill="white"/>
</clipPath>
</defs>
</svg>
