<svg width="24" height="24" viewBox="0 0 24 24" fill="none" xmlns="http://www.w3.org/2000/svg">
<path d="M12.15 19.35C11.74 19.35 11.4 19.01 11.4 18.6V16.5C11.4 16.09 11.74 15.75 12.15 15.75C12.56 15.75 12.9 16.09 12.9 16.5V18.6C12.9 19.01 12.56 19.35 12.15 19.35Z" fill="#292D32"/>
<path d="M17.9 22.75H6.39999V21C6.39999 19.48 7.62999 18.25 9.14999 18.25H15.15C16.67 18.25 17.9 19.48 17.9 21V22.75ZM7.89999 21.25H16.4V21C16.4 20.31 15.84 19.75 15.15 19.75H9.14999C8.45999 19.75 7.89999 20.31 7.89999 21V21.25V21.25Z" fill="#292D32"/>
<path d="M18.15 22.75H6.14999C5.73999 22.75 5.39999 22.41 5.39999 22C5.39999 21.59 5.73999 21.25 6.14999 21.25H18.15C18.56 21.25 18.9 21.59 18.9 22C18.9 22.41 18.56 22.75 18.15 22.75Z" fill="#292D32"/>
<path d="M18.43 12.44C18.22 12.44 18.01 12.35 17.86 12.18C17.67 11.96 17.62 11.65 17.74 11.39C18.08 10.61 18.25 9.78 18.25 8.91V5.91C18.25 5.56 18.19 5.22 18.07 4.86C18.06 4.83 18.05 4.79 18.04 4.75C18.01 4.6 18 4.45 18 4.31C18 3.9 18.34 3.56 18.75 3.56H19.35C21.14 3.56 22.6 5.06 22.6 6.91C22.6 8.44 21.97 9.95 20.88 11.04C20.86 11.06 20.8 11.11 20.79 11.12C20.2 11.61 19.53 12.16 18.63 12.41C18.56 12.43 18.5 12.44 18.43 12.44ZM19.68 5.09C19.73 5.36 19.75 5.64 19.75 5.91V8.91C19.75 9.32 19.72 9.71 19.66 10.11C19.72 10.06 19.77 10.02 19.83 9.97C20.63 9.17 21.1 8.05 21.1 6.91C21.1 6.01 20.49 5.25 19.68 5.09Z" fill="#292D32"/>
<path d="M5.57999 12.4C5.49999 12.4 5.42999 12.39 5.34999 12.36C4.52999 12.1 3.75999 11.62 3.11999 10.98C1.96999 9.71001 1.39999 8.32001 1.39999 6.85001C1.39999 5.03001 2.82999 3.60001 4.64999 3.60001H5.29999C5.54999 3.60001 5.78999 3.73001 5.92999 3.94001C6.06999 4.15001 6.08999 4.42001 5.98999 4.65001C5.82999 5.01001 5.74999 5.42001 5.74999 5.85001V8.85001C5.74999 9.71001 5.91999 10.55 6.26999 11.35C6.38999 11.62 6.32999 11.93 6.13999 12.15C5.98999 12.31 5.78999 12.4 5.57999 12.4ZM4.29999 5.13001C3.48999 5.29001 2.89999 5.99001 2.89999 6.85001C2.89999 7.94001 3.33999 8.99001 4.20999 9.95001C4.24999 10 4.29999 10.04 4.34999 10.08C4.27999 9.67001 4.24999 9.26001 4.24999 8.85001V5.85001C4.24999 5.61001 4.26999 5.37001 4.29999 5.13001Z" fill="#292D32"/>
<path d="M12 16.75C7.73 16.75 4.25 13.27 4.25 9V6C4.25 3.38 6.38 1.25 9 1.25H15C17.62 1.25 19.75 3.38 19.75 6V9C19.75 13.27 16.27 16.75 12 16.75ZM9 2.75C7.21 2.75 5.75 4.21 5.75 6V9C5.75 12.45 8.55 15.25 12 15.25C15.45 15.25 18.25 12.45 18.25 9V6C18.25 4.21 16.79 2.75 15 2.75H9Z" fill="#292D32"/>
<path d="M13.6595 12.76C13.4495 12.76 13.2295 12.72 13.0095 12.63L12.0295 12.25L11.0495 12.64C10.5195 12.85 9.97953 12.8 9.57953 12.51C9.17953 12.22 8.96953 11.72 8.99953 11.15L9.05953 10.1L8.38953 9.29C8.02953 8.84 7.90953 8.32 8.06953 7.84C8.21953 7.37 8.62953 7.01 9.17953 6.87L10.1995 6.61L10.7695 5.72C11.3795 4.76 12.6895 4.76 13.2995 5.72L13.8695 6.61L14.8895 6.87C15.4395 7.01 15.8495 7.37 15.9995 7.84C16.1495 8.31 16.0295 8.84 15.6695 9.28L14.9995 10.09L15.0595 11.14C15.0895 11.71 14.8795 12.2 14.4795 12.5C14.2395 12.67 13.9595 12.76 13.6595 12.76ZM9.54953 8.33L10.2195 9.14C10.4495 9.41 10.5795 9.84 10.5595 10.19L10.4995 11.24L11.4795 10.85C11.8095 10.72 12.2495 10.72 12.5795 10.85L13.5595 11.24L13.4995 10.19C13.4795 9.84 13.6095 9.42 13.8395 9.14L14.5095 8.33L13.4895 8.07C13.1495 7.98 12.7895 7.72 12.5995 7.43L12.0395 6.55L11.4695 7.43C11.2795 7.73 10.9195 7.99 10.5795 8.08L9.54953 8.33Z" fill="#EC3832"/>
</svg>
