<svg width="101" height="100" viewBox="0 0 101 100" fill="none" xmlns="http://www.w3.org/2000/svg">
<g opacity="0.495">
<path d="M1.34549 15.9589C1.34549 15.9589 7.27268 14.772 13.8205 24.86Z" fill="#071766"/>
<path d="M1.34549 15.9589C1.34549 15.9589 7.27268 14.772 13.8205 24.86" stroke="black" stroke-width="1.00012"/>
</g>
<g opacity="0.495">
<path d="M5.31181 11.7351C5.31181 11.7351 11.3517 11.49 16.2408 22.478Z" fill="#071766"/>
<path d="M5.31181 11.7351C5.31181 11.7351 11.3517 11.49 16.2408 22.478" stroke="black" stroke-width="1.00012"/>
</g>
<g opacity="0.495">
<path d="M10.2922 8.18112C10.2922 8.18112 16.3169 8.67394 19.8304 20.1759Z" fill="#071766"/>
<path d="M10.2922 8.18112C10.2922 8.18112 16.3169 8.67394 19.8304 20.1759" stroke="black" stroke-width="1.00012"/>
</g>
<path d="M23.5219 38.5317L23.4624 38.5422C21.391 38.9047 19.2646 38.7984 17.2397 38.2309L16.9193 38.1413L17.0261 37.8478C19.1059 38.4768 21.3043 38.6091 23.4446 38.2341C25.304 37.9084 27.0763 37.203 28.6509 36.1618C28.7298 36.1121 28.8078 36.0611 28.9092 35.9899L29.1089 36.2279L28.8211 36.4182C27.2196 37.4812 25.4153 38.2008 23.5219 38.5317ZM23.3899 37.9318C21.5082 38.2661 19.5769 38.1955 17.7247 37.7246L19.433 33.033L24.8303 32.0813L28.1921 36.0908C26.7244 37.0072 25.094 37.6327 23.3899 37.9318ZM28.9084 35.9857L25.0716 31.4112L18.9722 32.4867L17.0232 37.8439C16.8733 37.7973 16.7627 37.7628 16.6634 37.7299C16.4755 37.6666 16.2868 37.599 16.1019 37.5286L18.0542 32.1694L14.0783 27.4236L7.98175 28.4986L7.87035 28.8032C7.72797 28.352 7.60859 27.8945 7.51351 27.4423L7.87115 27.8672L13.9642 26.7929L16.0798 20.976L12.1045 16.2294L9.75018 16.6445C10.8934 15.0185 12.3762 13.6603 14.0962 12.6639L12.91 15.9215L16.8875 20.6641L22.9806 19.5897L25.0962 13.7728L22.6887 10.891C24.6292 11.1211 26.4982 11.7629 28.1708 12.7734L26.1664 13.1268L24.0512 18.9458L28.0285 23.6869L34.1215 22.6125L34.5125 21.5406C34.5662 21.7663 34.6122 21.9942 34.6515 22.2166C34.7824 22.9622 34.8529 23.7171 34.8625 24.474L34.3396 23.8496L28.2466 24.9239L26.1316 30.7444L29.8997 35.2316C29.5817 35.4995 29.2459 35.7538 28.9105 35.9853L28.9084 35.9857ZM17.2525 20.9401L15.1371 26.7577L19.1149 31.5024L25.208 30.428L27.3232 24.609L23.3457 19.8665L17.2526 20.9408L17.2525 20.9401ZM30.0979 35.4728L29.8989 35.2354C29.9709 35.1752 30.0472 35.1106 30.1326 35.0357C31.5751 33.7729 32.7403 32.225 33.5548 30.4895C34.3693 28.754 34.8154 26.8685 34.865 24.9521C34.8683 24.8054 34.8691 24.6482 34.8665 24.4762L35.1754 24.844L35.1716 24.9594C35.1202 26.9184 34.6637 28.8456 33.8309 30.6196C32.9981 32.3936 31.807 33.976 30.3326 35.267L30.0979 35.4728ZM15.9977 37.8239L15.7038 37.7026C13.8676 36.9498 12.2098 35.8199 10.8378 34.386C9.46574 32.9522 8.40998 31.2462 7.73879 29.3786L7.70926 29.2443L7.8706 28.8046C7.92421 28.9719 7.97462 29.1252 8.02615 29.2725C8.69679 31.1506 9.76618 32.8613 11.1608 34.2869C12.5555 35.7125 14.2423 36.8192 16.1053 37.531L15.9985 37.8245L15.9977 37.8239ZM30.1631 34.5956L26.8259 30.6256L28.7 25.4737L34.0994 24.5216L34.5542 25.0624C34.4935 26.8636 34.0739 28.6345 33.32 30.2715C32.5661 31.9085 31.4931 33.3785 30.1638 34.5955L30.1631 34.5956ZM15.6423 37.0099C13.9684 36.2788 12.4597 35.2165 11.2071 33.887C9.95449 32.5576 8.98388 30.9883 8.35368 29.2739L8.4381 29.0442L13.834 28.0928L17.3593 32.2926L15.6416 37.01L15.6423 37.0099ZM24.7538 29.882L19.3564 30.8337L15.8333 26.6335L17.7074 21.4816L23.104 20.53L26.6293 24.7299L24.7531 29.8822L24.7538 29.882ZM7.51184 27.4411L7.11487 26.9713L7.09925 26.8827C6.52011 23.3801 7.29044 19.7883 9.25493 16.8312L9.32508 16.7195L9.75018 16.6445C7.65707 19.5983 6.81378 23.2586 7.40345 26.8305C7.41027 26.9024 7.42002 26.9576 7.43089 27.0193C7.45437 27.1525 7.47873 27.2906 7.51293 27.4431L7.51184 27.4411ZM13.5111 26.2489L8.11304 27.2007L7.69415 26.7018C7.17345 23.4222 7.88632 20.0659 9.69512 17.281L11.8603 16.8993L15.3856 21.0991L13.5093 26.2514L13.5111 26.2489ZM33.6675 22.0716L28.2708 23.0232L24.7477 18.823L26.6216 13.6697L28.4899 13.3402C31.2118 15.1322 33.1914 17.8506 34.0614 20.9911L33.6671 22.0695L33.6675 22.0716ZM34.5168 21.5398C34.4773 21.37 34.4324 21.1894 34.3836 21.0081C33.4578 17.5628 31.2306 14.6114 28.1713 12.7762L28.6226 12.6966L28.7238 12.7613C31.6603 14.6566 33.7861 17.577 34.6874 20.9538L34.7018 21.0353L34.5181 21.5389L34.5168 21.5398ZM22.5343 19.0431L17.1348 19.9951L13.6124 15.7948L14.7555 12.6492C17.0138 11.4684 19.5582 10.9454 22.0991 11.1396L24.4105 13.8908L22.5357 19.0428L22.5343 19.0431ZM14.0962 12.6639L14.2569 12.2206L14.3599 12.1667C16.7854 10.8671 19.5368 10.3018 22.2782 10.5396L22.4038 10.5518L22.6887 10.891C21.3449 10.7303 19.9847 10.7685 18.6521 11.0044C18.4771 11.0353 18.2978 11.0669 18.1274 11.1072C16.7108 11.4114 15.3509 11.9367 14.0976 12.6637L14.0962 12.6639Z" fill="#071766"/>
<path d="M95.0172 45.3834L94.7849 45.2396L35.9712 8.07265L41.0727 0L41.305 0.143872L100.117 37.3108L95.0172 45.3834Z" fill="#EC3832"/>
<path d="M80.8173 5.0741C79.1077 3.99348 77.124 3.42576 75.1015 3.43825C73.079 3.45075 71.1025 4.04293 69.4064 5.1446C67.7102 6.24627 66.3655 7.81122 65.5317 9.65389C64.6979 11.4966 64.4101 13.5397 64.7022 15.541C66.7885 16.136 75.1187 21.977 78.2785 24.123C80.2121 23.5288 81.9348 22.3924 83.2421 20.8487C84.5495 19.305 85.3867 17.4187 85.6544 15.4135C85.9221 13.4084 85.6091 11.3685 84.7525 9.53593C83.8959 7.7033 82.5317 6.15481 80.8216 5.0741H80.8173Z" fill="#EC3832"/>
<path d="M2.15828 27.3381H66.9065L61.1511 100H7.91367L2.15828 27.3381Z" fill="#EC3832"/>
<rect x="14.3885" y="40.2878" width="5.7554" height="47.482" fill="white"/>
<rect x="31.6547" y="40.2878" width="5.7554" height="47.482" fill="white"/>
<rect x="48.9209" y="40.2878" width="5.7554" height="47.482" fill="white"/>
</svg>
