<svg width="24" height="24" viewBox="0 0 24 24" fill="none" xmlns="http://www.w3.org/2000/svg">
<g clip-path="url(#clip0_3_144)">
<path d="M6.28922 19.1111V18.0484C6.28922 16.9439 7.18465 16.0484 8.28922 16.0484H16.422C17.5265 16.0484 18.422 16.9439 18.422 18.0484V19.1111" stroke="white"/>
<path d="M4.82162 21.352H7.42622" stroke="white"/>
<rect x="2.5" y="19.1606" width="7.24789" height="4.33942" rx="1.5" stroke="white"/>
<path d="M17.0199 21.352H19.6245" stroke="white"/>
<rect x="14.6982" y="19.1606" width="7.24789" height="4.33942" rx="1.5" stroke="white"/>
<path d="M17.7894 8.06637C17.7894 11.1406 15.2972 13.6327 12.223 13.6327C9.1488 13.6327 6.65665 11.1406 6.65665 8.06637C6.65665 4.99215 9.1488 2.5 12.223 2.5C15.2972 2.5 17.7894 4.99215 17.7894 8.06637Z" stroke="white"/>
<path d="M11.1781 2.61111C11.0523 6.14713 9.92871 7.18382 6.90036 8.11112" stroke="white"/>
<path d="M12.4004 13C12.5443 9.0711 13.8283 7.91921 17.2892 6.88889" stroke="white"/>
<path d="M12.4004 13.6111V16.0556" stroke="white"/>
</g>
<defs>
<clipPath id="clip0_3_144">
<rect width="24" height="24" fill="white"/>
</clipPath>
</defs>
</svg>
