<svg width="24" height="24" viewBox="0 0 24 24" fill="none" xmlns="http://www.w3.org/2000/svg">
<path d="M10.59 12C13.3515 12 15.59 9.76142 15.59 7C15.59 4.23858 13.3515 2 10.59 2C7.8286 2 5.59003 4.23858 5.59003 7C5.59003 9.76142 7.8286 12 10.59 12Z" stroke="white" stroke-linecap="round" stroke-linejoin="round"/>
<path d="M2 22C2 18.13 5.85003 15 10.59 15C11.55 15 12.48 15.13 13.35 15.37" stroke="white" stroke-linecap="round" stroke-linejoin="round"/>
<path d="M20.7148 15.3568C20.8014 15.0946 20.659 14.8118 20.3968 14.7252C20.1346 14.6386 19.8518 14.781 19.7652 15.0432L20.7148 15.3568ZM19.7652 20.9568C19.8518 21.219 20.1346 21.3614 20.3968 21.2748C20.659 21.1882 20.8014 20.9054 20.7148 20.6432L19.7652 20.9568ZM14.4148 15.0432C14.3282 14.781 14.0455 14.6386 13.7832 14.7252C13.521 14.8118 13.3787 15.0946 13.4652 15.3568L14.4148 15.0432ZM13.4652 20.6432C13.3787 20.9054 13.521 21.1882 13.7832 21.2748C14.0455 21.3614 14.3282 21.219 14.4148 20.9568L13.4652 20.6432ZM21.09 18C21.09 19.8793 19.3562 21.5 17.09 21.5V22.5C19.7945 22.5 22.09 20.539 22.09 18H21.09ZM17.09 21.5C14.8239 21.5 13.09 19.8793 13.09 18H12.09C12.09 20.539 14.3856 22.5 17.09 22.5V21.5ZM13.09 18C13.09 16.1207 14.8239 14.5 17.09 14.5V13.5C14.3856 13.5 12.09 15.461 12.09 18H13.09ZM17.09 14.5C19.3562 14.5 21.09 16.1207 21.09 18H22.09C22.09 15.461 19.7945 13.5 17.09 13.5V14.5ZM19.7652 15.0432C19.1316 16.9619 19.1316 19.0381 19.7652 20.9568L20.7148 20.6432C20.1484 18.9281 20.1484 17.0719 20.7148 15.3568L19.7652 15.0432ZM13.4652 15.3568C14.0316 17.0719 14.0316 18.9281 13.4652 20.6432L14.4148 20.9568C15.0484 19.0381 15.0484 16.9619 14.4148 15.0432L13.4652 15.3568ZM16.59 14.2V22H17.59V14.2H16.59ZM12.815 18.5H21.59V17.5H12.815V18.5Z" fill="white"/>
</svg>
