<svg width="24" height="24" viewBox="0 0 24 24" fill="none" xmlns="http://www.w3.org/2000/svg">
<path d="M20.278 4.757C20.1986 4.51572 20.0642 4.29619 19.8855 4.11571C19.7067 3.93523 19.4885 3.79874 19.248 3.717C17.0841 2.98402 14.7583 2.8709 12.5334 3.39042C10.3086 3.90994 8.27343 5.0414 6.65791 6.65691C5.0424 8.27243 3.91094 10.3076 3.39142 12.5324C2.8719 14.7573 2.98502 17.0831 3.718 19.247C3.79974 19.4875 3.93623 19.7057 4.11671 19.8845C4.29719 20.0632 4.51672 20.1976 4.758 20.277C6.02979 20.7112 7.36413 20.9342 8.708 20.937C10.6504 20.9292 12.5631 20.4601 14.2887 19.5683C16.0142 18.6765 17.5033 17.3875 18.6331 15.8075C19.7629 14.2275 20.5012 12.4017 20.7872 10.4805C21.0732 8.55924 20.8987 6.59756 20.278 4.757ZM5.078 19.337C4.9823 19.3006 4.8954 19.2444 4.82301 19.172C4.75062 19.0996 4.69438 19.0127 4.658 18.917C4.19573 17.5468 3.99888 16.101 4.078 14.657L9.338 19.917C7.89402 19.9968 6.44809 19.7999 5.078 19.337ZM16.638 16.627C15.0027 18.2743 12.8952 19.3717 10.608 19.767L4.228 13.387C4.61909 11.1012 5.7173 8.99575 7.368 7.367C9.00248 5.71679 11.1099 4.61592 13.398 4.217L19.778 10.597C19.3786 12.8828 18.2818 14.9891 16.638 16.627ZM19.928 9.327L14.668 4.067C14.878 4.067 15.078 4.057 15.288 4.057C16.5234 4.0579 17.7501 4.26404 18.918 4.667C19.0141 4.69976 19.1017 4.75357 19.1744 4.8245C19.247 4.89544 19.3029 4.9817 19.338 5.077C19.7985 6.44434 19.9987 7.88591 19.928 9.327Z" fill="white"/>
<path d="M10.4 15.257C10.4923 15.3512 10.6181 15.4051 10.75 15.407C10.8169 15.4069 10.8832 15.3937 10.945 15.3679C11.0067 15.3422 11.0628 15.3045 11.11 15.257C11.2016 15.1635 11.2529 15.0379 11.2529 14.907C11.2529 14.7761 11.2016 14.6505 11.11 14.557L10.63 14.077L12 12.707L12.48 13.187C12.5749 13.276 12.6999 13.3259 12.83 13.327C12.9631 13.326 13.0912 13.2762 13.19 13.187C13.2816 13.0915 13.3327 12.9643 13.3327 12.832C13.3327 12.6997 13.2816 12.5725 13.19 12.477L12.71 11.997L14.08 10.627L14.56 11.107C14.6562 11.1883 14.7796 11.2303 14.9054 11.2245C15.0312 11.2188 15.1503 11.1658 15.2387 11.0761C15.3271 10.9864 15.3785 10.8666 15.3824 10.7407C15.3864 10.6148 15.3426 10.4921 15.26 10.397L13.6 8.737C13.5535 8.69014 13.4982 8.65294 13.4373 8.62756C13.3764 8.60217 13.311 8.5891 13.245 8.5891C13.179 8.5891 13.1136 8.60217 13.0527 8.62756C12.9918 8.65294 12.9365 8.69014 12.89 8.737C12.7984 8.83047 12.7471 8.95613 12.7471 9.087C12.7471 9.21788 12.7984 9.34354 12.89 9.437L13.38 9.927L12 11.3L11.52 10.82C11.4742 10.7733 11.4196 10.7361 11.3594 10.7106C11.2991 10.6851 11.2344 10.6718 11.169 10.6715C11.1035 10.6711 11.0387 10.6838 10.9782 10.7087C10.9177 10.7336 10.8627 10.7702 10.8164 10.8164C10.7702 10.8627 10.7336 10.9177 10.7087 10.9782C10.6838 11.0387 10.6711 11.1035 10.6715 11.169C10.6718 11.2344 10.6851 11.2991 10.7106 11.3594C10.7361 11.4196 10.7733 11.4742 10.82 11.52L11.3 12L9.93 13.38L9.44 12.89C9.34654 12.7984 9.22088 12.7471 9.09 12.7471C8.95912 12.7471 8.83347 12.7984 8.74 12.89C8.69314 12.9365 8.65594 12.9918 8.63056 13.0527C8.60517 13.1136 8.5921 13.179 8.5921 13.245C8.5921 13.311 8.60517 13.3764 8.63056 13.4373C8.65594 13.4982 8.69314 13.5535 8.74 13.6L10.4 15.257Z" fill="white"/>
</svg>
