<svg width="24" height="24" viewBox="0 0 24 24" fill="none" xmlns="http://www.w3.org/2000/svg">
<path d="M12 6V8.25" stroke="#292D32" stroke-width="1.5" stroke-linecap="round" stroke-linejoin="round"/>
<path d="M6.10969 10.1333L8.25 10.828" stroke="#292D32" stroke-width="1.5" stroke-linecap="round" stroke-linejoin="round"/>
<path d="M8.35969 16.8206L9.6825 15" stroke="#292D32" stroke-width="1.5" stroke-linecap="round" stroke-linejoin="round"/>
<path d="M15.6403 16.8206L14.3175 15" stroke="#292D32" stroke-width="1.5" stroke-linecap="round" stroke-linejoin="round"/>
<path d="M17.8903 10.1333L15.75 10.828" stroke="#292D32" stroke-width="1.5" stroke-linecap="round" stroke-linejoin="round"/>
<path d="M15.3984 3.66357L12 5.99982L8.60156 3.66357" stroke="#EC3832" stroke-width="1.5" stroke-linecap="round" stroke-linejoin="round"/>
<path d="M20.9859 12.5082L17.8894 10.1326L19.0097 6.35449" stroke="#EC3832" stroke-width="1.5" stroke-linecap="round" stroke-linejoin="round"/>
<path d="M4.99031 6.35449L6.10969 10.1326L3.01406 12.5082" stroke="#EC3832" stroke-width="1.5" stroke-linecap="round" stroke-linejoin="round"/>
<path d="M14.2622 20.7133L15.6403 16.8208H19.6013" stroke="#EC3832" stroke-width="1.5" stroke-linecap="round" stroke-linejoin="round"/>
<path d="M4.39875 16.8208H8.35969L9.73781 20.7133" stroke="#EC3832" stroke-width="1.5" stroke-linecap="round" stroke-linejoin="round"/>
<path d="M12 21C16.9706 21 21 16.9706 21 12C21 7.02944 16.9706 3 12 3C7.02944 3 3 7.02944 3 12C3 16.9706 7.02944 21 12 21Z" stroke="#292D32" stroke-width="1.5" stroke-linecap="round" stroke-linejoin="round"/>
<path d="M12 8.25L8.25 10.8281L9.6825 15H14.3175L15.75 10.8281L12 8.25Z" stroke="#EC3832" stroke-width="1.5" stroke-linecap="round" stroke-linejoin="round"/>
</svg>
