<svg width="24" height="24" viewBox="0 0 24 24" fill="none" xmlns="http://www.w3.org/2000/svg">
<path d="M11.46 13.73C13.0119 13.73 14.27 12.4719 14.27 10.92C14.27 9.36806 13.0119 8.10999 11.46 8.10999C9.90807 8.10999 8.64999 9.36806 8.64999 10.92C8.64999 12.4719 9.90807 13.73 11.46 13.73Z" stroke="#EC3832" stroke-width="1.5" stroke-linecap="round" stroke-linejoin="round"/>
<path d="M16.65 20.2C16.65 17.87 14.33 15.97 11.46 15.97C8.58999 15.97 6.26999 17.86 6.26999 20.2" stroke="#292D32" stroke-width="1.5" stroke-linecap="round" stroke-linejoin="round"/>
<path d="M15.2 3.73999C14.06 3.25999 12.81 3 11.5 3C6.25 3 2 7.25 2 12.5C2 17.75 6.25 22 11.5 22C16.75 22 21 17.75 21 12.5C21 11.19 20.73 9.92998 20.25 8.78998" stroke="#292D32" stroke-width="1.5" stroke-linecap="round" stroke-linejoin="round"/>
<path d="M18.185 5.9888C18.7311 5.9888 19.1738 5.54609 19.1738 4.99998C19.1738 4.45388 18.7311 4.01117 18.185 4.01117C17.6388 4.01117 17.1961 4.45388 17.1961 4.99998C17.1961 5.54609 17.6388 5.9888 18.185 5.9888Z" stroke="#EC3832" stroke-width="1.5" stroke-miterlimit="10" stroke-linecap="round" stroke-linejoin="round"/>
<path d="M14 5.37292V4.62708C14 4.18635 14.3602 3.8219 14.8052 3.8219C15.5722 3.8219 15.8858 3.27946 15.5002 2.61413C15.2798 2.23273 15.4112 1.73691 15.7968 1.51654L16.53 1.097C16.8647 0.897828 17.297 1.01649 17.4962 1.35127L17.5428 1.43179C17.9242 2.09712 18.5514 2.09712 18.937 1.43179L18.9836 1.35127C19.1828 1.01649 19.6151 0.897828 19.9498 1.097L20.683 1.51654C21.0686 1.73691 21.2 2.23273 20.9796 2.61413C20.594 3.27946 20.9076 3.8219 21.6746 3.8219C22.1154 3.8219 22.4798 4.18211 22.4798 4.62708V5.37292C22.4798 5.81365 22.1196 6.1781 21.6746 6.1781C20.9076 6.1781 20.594 6.72054 20.9796 7.38587C21.2 7.77151 21.0686 8.26309 20.683 8.48346L19.9498 8.903C19.6151 9.10217 19.1828 8.98352 18.9836 8.64873L18.937 8.56821C18.5556 7.90288 17.9284 7.90288 17.5428 8.56821L17.4962 8.64873C17.297 8.98352 16.8647 9.10217 16.53 8.903L15.7968 8.48346C15.4112 8.26309 15.2798 7.76727 15.5002 7.38587C15.8858 6.72054 15.5722 6.1781 14.8052 6.1781C14.3602 6.1781 14 5.81365 14 5.37292Z" stroke="#292D32" stroke-width="1.5" stroke-miterlimit="10" stroke-linecap="round" stroke-linejoin="round"/>
</svg>
