<svg width="24" height="24" viewBox="0 0 24 24" fill="none" xmlns="http://www.w3.org/2000/svg">
<path d="M12 22.7501C11.56 22.7501 11.11 22.6901 10.75 22.5701L7.56 21.5101C6.05 21.0101 4.86 19.3601 4.87 17.7701L4.88 13.0801C4.88 12.6701 5.22 12.3301 5.63 12.3301C6.04 12.3301 6.38 12.6701 6.38 13.0801L6.37 17.7701C6.37 18.7101 7.15 19.7901 8.04 20.0901L11.23 21.1501C11.63 21.2801 12.37 21.2801 12.77 21.1501L15.96 20.0901C16.85 19.7901 17.63 18.7101 17.63 17.7801V13.1401C17.63 12.7301 17.97 12.3901 18.38 12.3901C18.79 12.3901 19.13 12.7301 19.13 13.1401V17.7801C19.13 19.3701 17.95 21.0101 16.44 21.5201L13.25 22.5801C12.89 22.6901 12.44 22.7501 12 22.7501Z" fill="#292D32"/>
<path d="M21.4 15.75C20.99 15.75 20.65 15.41 20.65 15V9C20.65 8.59 20.99 8.25 21.4 8.25C21.81 8.25 22.15 8.59 22.15 9V15C22.15 15.41 21.81 15.75 21.4 15.75Z" fill="#EC3832"/>
<path d="M12.01 16.9998C11.16 16.9998 10.3 16.7798 9.63 16.3498L3.61 12.4198C2.49 11.6898 1.82 10.4598 1.82 9.11979C1.82 7.77979 2.49 6.54979 3.61 5.81979L9.64 1.89979C10.98 1.02979 13.07 1.02979 14.4 1.90979L20.39 5.83979C21.5 6.56979 22.17 7.79979 22.17 9.12979C22.17 10.4598 21.5 11.6898 20.39 12.4198L14.4 16.3498C13.73 16.7898 12.87 16.9998 12.01 16.9998ZM12.01 2.74979C11.44 2.74979 10.87 2.87979 10.46 3.15979L4.44 7.07979C3.74 7.53979 3.33 8.27979 3.33 9.11979C3.33 9.95979 3.73 10.6998 4.44 11.1598L10.46 15.0898C11.29 15.6298 12.75 15.6298 13.58 15.0898L19.57 11.1598C20.27 10.6998 20.67 9.95979 20.67 9.11979C20.67 8.27979 20.27 7.53979 19.57 7.07979L13.58 3.14979C13.16 2.88979 12.59 2.74979 12.01 2.74979Z" fill="#EC3832"/>
</svg>
