<svg width="24" height="24" viewBox="0 0 24 24" fill="none" xmlns="http://www.w3.org/2000/svg">
<path d="M10.59 12C13.3515 12 15.59 9.76142 15.59 7C15.59 4.23858 13.3515 2 10.59 2C7.8286 2 5.59003 4.23858 5.59003 7C5.59003 9.76142 7.8286 12 10.59 12Z" stroke="#292D32" stroke-width="1.5" stroke-linecap="round" stroke-linejoin="round"/>
<path d="M2 22C2 18.13 5.85003 15 10.59 15C11.63 15 12.63 15.15 13.56 15.43" stroke="#292D32" stroke-width="1.5" stroke-linecap="round" stroke-linejoin="round"/>
<path d="M21.613 17.1027C21.613 19.3043 20.0148 21.3663 17.8312 21.9696C17.6826 22.0101 17.5205 22.0101 17.3719 21.9696C15.1883 21.3663 13.59 19.3043 13.59 17.1027V15.1262C13.59 14.757 13.8692 14.3383 14.2158 14.1987L16.7236 13.1722C17.2864 12.9426 17.9212 12.9426 18.484 13.1722L20.9917 14.1987C21.3339 14.3383 21.6176 14.757 21.6176 15.1262L21.613 17.1027Z" stroke="#EC3832" stroke-width="1.5" stroke-linecap="round" stroke-linejoin="round"/>
<path d="M17.6015 17.724C18.0988 17.724 18.502 17.3209 18.502 16.8236C18.502 16.3263 18.0988 15.9231 17.6015 15.9231C17.1042 15.9231 16.7011 16.3263 16.7011 16.8236C16.7011 17.3209 17.1042 17.724 17.6015 17.724Z" stroke="#EC3832" stroke-width="1.5" stroke-miterlimit="10" stroke-linecap="round" stroke-linejoin="round"/>
<path d="M17.6015 17.7241V19.0747" stroke="#EC3832" stroke-width="1.5" stroke-miterlimit="10" stroke-linecap="round" stroke-linejoin="round"/>
</svg>
