<svg width="24" height="24" viewBox="0 0 24 24" fill="none" xmlns="http://www.w3.org/2000/svg">
<path d="M12 12C14.7614 12 17 9.76142 17 7C17 4.23858 14.7614 2 12 2C9.23858 2 7 4.23858 7 7C7 9.76142 9.23858 12 12 12Z" stroke="#292D32" stroke-width="1.5" stroke-linecap="round" stroke-linejoin="round"/>
<path d="M3.40997 22C3.40997 18.13 7.26 15 12 15C13.04 15 14.04 15.15 14.97 15.43" stroke="#292D32" stroke-width="1.5" stroke-linecap="round" stroke-linejoin="round"/>
<path d="M19.387 14H16.471C14.779 14 14.6485 15.521 15.562 16.349L20.296 20.651C21.2095 21.479 21.079 23 19.387 23H16.471C14.779 23 14.6485 21.479 15.562 20.651L20.296 16.349C21.2095 15.521 21.079 14 19.387 14Z" stroke="#EC3832" stroke-width="1.5" stroke-linecap="round" stroke-linejoin="round"/>
</svg>
