<svg width="18" height="19" viewBox="0 0 18 19" fill="none" xmlns="http://www.w3.org/2000/svg">
<path d="M8.99658 13.0082V11.1055" stroke="#676767" stroke-width="1.5" stroke-linecap="round" stroke-linejoin="round"/>
<path fill-rule="evenodd" clip-rule="evenodd" d="M13.6425 4.49805C14.91 4.49805 15.93 5.52555 15.93 6.79305V9.37305C14.085 10.453 11.6475 11.1055 8.9925 11.1055C6.3375 11.1055 3.9075 10.453 2.0625 9.37305V6.78555C2.0625 5.51805 3.09 4.49805 4.3575 4.49805H13.6425Z" stroke="#676767" stroke-width="1.5" stroke-linecap="round" stroke-linejoin="round"/>
<path d="M11.6216 4.4945V4.22C11.6216 3.305 10.8791 2.5625 9.96408 2.5625H8.02908C7.11408 2.5625 6.37158 3.305 6.37158 4.22V4.4945" stroke="#676767" stroke-width="1.5" stroke-linecap="round" stroke-linejoin="round"/>
<path d="M2.08105 12.1133L2.2228 13.995C2.3188 15.2633 3.37555 16.2435 4.6468 16.2435H13.3461C14.6173 16.2435 15.6741 15.2633 15.7701 13.995L15.9118 12.1133" stroke="#676767" stroke-width="1.5" stroke-linecap="round" stroke-linejoin="round"/>
</svg>
